# xmcd CD database file
#
# Track frame offsets:
#	150
#	17582
#	36670
#	56615
#	76160
#	94465
#	115692
#	130172
#	152600
#	173217
#
# Disc length: 2551 seconds
#
# Revision: 4
# Processed by: cddbd v1.5.2PL0 Copyright (c) Steve Scherf et al.
# Submitted via: CDex 1.51
#
DISCID=7a09f50a
DTITLE=Bonnie Raitt - Nine Lives
DYEAR=1986
DGENRE=Blues
TTITLE0=No Way To Treat A Lady
TTITLE1=Runnin' Back To Me
TTITLE2=Who But A Fool (Thief Into Paradise)
TTITLE3=Crime Of Passion
TTITLE4=All Day, All Night
TTITLE5=Stand Up To The Night
TTITLE6=Excited
TTITLE7=Freezin' (For A Little Human Love)
TTITLE8=True Love Is Hard To Find
TTITLE9=Angel
EXTD=YEAR: 1986
EXTT0=
EXTT1=
EXTT2=
EXTT3=
EXTT4=
EXTT5=
EXTT6=
EXTT7=
EXTT8=
EXTT9=
PLAYORDER=
